<svg xmlns="http://www.w3.org/2000/svg" viewBox="0 0 200 235.6">
  <path
    d="M54.9 226.9c-12.9 0-23.5-10.1-24.1-22.9l-9-168.6c-.2-4.3.7-10.1 2.5-13.7l-4.7.5C7.6 23.5-1.1 34.3.1 46.4L17.9 216c1.2 11.2 10.6 19.7 21.8 19.7.8 0 1.6 0 2.3-.1 0 0 115.5-12.7 118-14L56.1 227c-.3-.1-.8-.1-1.2-.1z"
  />
  <path
    d="M180.2 0H69.7C58.8 0 49.9 8.9 49.9 19.8v174.9c0 10.9 8.9 19.8 19.8 19.8h110.5c10.9 0 19.8-8.9 19.8-19.8V19.8C200 8.9 191.1 0 180.2 0z"
  />
  <path
    d="M35.6 204.7c.6 10.6 9.3 18.8 19.7 18.8h1.1l94.4-4.9H69.3c-13.3 0-24.2-10.8-24.2-24.2v-174c0-3.7.8-7.1 2.3-10.3l-2 .1c-10.9.4-19.3 9.8-18.7 20.7l8.9 173.8z"
  />
</svg>
