<svg id="pure-romance-logo" xmlns="http://www.w3.org/2000/svg" viewBox="0 0 360 33.9">
    <style type="text/css">
        .pure-romance-logo-internal {
            fill: #D22196;
        }
    </style>
    <path class="pure-romance-logo-internal"
        d="M6.6 18.8H4.4v.2c0 4.1.1 10.4.4 14.2-.7 0-1.7-.1-2.4-.1-.8 0-1.7 0-2.5.1.2-3.8.4-10 .4-14.3v-4.7C.4 10 .2 4.7 0 .9c1.6 0 3.3.1 4.4.1 1 0 2.2 0 3.3-.1C8.8.9 9.8.8 10.5.8c3.8 0 9.2 1 9.2 8.2 0 8.4-7.5 9.8-13.1 9.8zM7.7 2.6c-1 0-2.1.1-3.1.2-.1 2.9-.1 8.5-.1 11.4V17h1.8c4.8 0 8.8-1.2 8.8-7.9 0-5.1-3.4-6.5-7.4-6.5zM54 19.2c0 2.5-.4 5.1-1.1 7.1-1.7 4.6-5.6 7.7-12.3 7.7-9.2 0-13.2-3.7-13.2-13.4 0-2.9.1-6 .1-8.4 0-5.2-.1-8.5-.3-11.2.8-.1 1.8 0 2.5 0 .8 0 1.7 0 2.6-.1-.3 3-.7 9.6-.7 16.6 0 8.4 1.1 14.2 10 14.2 5.5 0 8.3-2.8 9.4-7.2.5-1.9.6-3.9.6-6.7 0-6.9-.2-13-.6-16.9.7 0 1.2.1 1.7.1s1.2 0 1.7-.1c-.2 4.3-.4 9.1-.4 18.3zM86.6 33.2h-2.3c-.8 0-2.5.1-3.2.2C79 30.2 72.6 21.8 69 17.7c-.1-.2-.4-.2-.8-.2V19c0 4.2.1 10.5.4 14.3-.6 0-1.6-.1-2.3-.1-.8 0-1.7 0-2.4.1.2-3.8.4-10 .4-14.3v-4.7c0-4.3 0-9.5-.2-13.3 1.6 0 2.7.1 3.8.1.8 0 1.7 0 2.7-.1 1 0 1.9-.1 2.6-.1 5.3 0 9.7 1.8 9.7 7.4 0 6.2-5 8.5-9.5 8.9 2.2 2.9 10.5 12.7 13.4 15.8l-.2.2zM70.8 2.6c-.7 0-1.6 0-2.4.2-.2 2.9-.2 8.5-.2 11.4V16h1.7c4.3 0 8.6-1.1 8.6-7.3-.2-5.2-4.2-6.1-7.7-6.1zM97.4 33.1c-1.2 0-3.8.1-4.9.1.2-3.8.4-10 .4-14.3v-4.7c0-4.3-.1-9.5-.4-13.3 1.1 0 3.2.1 4.7.1 3.1 0 7.9 0 11-.1v2.8c-2-.4-6.6-.7-11.1-.7-.1 2.2-.2 6.9-.2 10.7v1.5c5.5 0 8.6-.2 10.3-.5v2.8c-1.7-.3-4.8-.4-10.3-.4V19c0 4.2.1 10.3.2 12.1 4.2 0 7.9-.2 11.3-.8v2.9c-2.9 0-7-.1-11-.1zM150.9 33.2h-2.3c-.8 0-2.5.1-3.2.2-2.1-3.1-8.4-11.5-12.1-15.6-.1-.2-.4-.2-.8-.2v1.5c0 4.2.1 10.5.4 14.3-.6 0-1.6-.1-2.3-.1-.8 0-1.7 0-2.4.1.2-3.8.4-10 .4-14.3v-4.7c0-4.3 0-9.5-.2-13.3 1.6 0 2.7.1 3.8.1.8 0 1.7 0 2.7-.1 1 0 1.9-.1 2.6-.1 5.3 0 9.7 1.8 9.7 7.4 0 6.2-5 8.5-9.5 8.9 2.2 2.9 10.5 12.7 13.4 15.8l-.2.1zM135 2.6c-.7 0-1.6 0-2.4.2-.2 2.9-.2 8.5-.2 11.4V16h1.7c4.3 0 8.6-1.1 8.6-7.3-.1-5.2-4.2-6.1-7.7-6.1zM172.2 33.9c-10.1 0-17-6.6-17-16.9 0-10.3 6.9-16.9 17-16.9 10.4 0 17.1 6.5 17.1 16.9 0 10.2-6.9 16.9-17.1 16.9zm0-32c-7.1 0-12.2 5-12.2 15.1 0 9.9 5.1 15 12.2 15 7.2 0 12.3-5.1 12.3-15 0-9.8-5.1-15.1-12.3-15.1zM231.3 33.1c-.8 0-1.6 0-2.5.1-.2-5.9-1.1-16.3-2-23.8h-.2c-2.5 4.1-9.2 16.5-12.5 23.7h-.8c-2.8-6.8-8.7-17.4-11.5-22.3-.2-.4-.4-.9-.6-1.3h-.2c-1 8.1-2 18.4-2 23.7-.5 0-1.2-.1-1.7-.1s-1.2 0-1.8.1c1.8-10.2 3.7-23.2 4.6-33h.8c4.3 8.1 11.4 21.4 14 26h.2c2.5-4.4 9.6-17.1 14.2-26h.8c1 13 2.6 28 3.6 33-.6 0-1.6-.1-2.4-.1zM268 33.2c-.8 0-2.1-.1-2.8-.1-.7 0-1.6 0-2.4.1-.9-3.2-2.7-8.1-4.4-12.5-1.7-.1-4.2-.1-6.3-.1-1.9 0-3.7 0-5.7.1-2 4.8-3.8 9.6-4.7 12.5-.5 0-1.2-.1-1.7-.1-.6 0-1.4 0-1.8.1l-.1-.1C243.4 22.4 248.9 11 253.8 0h.8c4.2 11 11.2 28.1 13.6 33.1l-.2.1zM252.8 6.1c-1.4 3-4.2 9.1-5.6 12.6H257.6c-.9-2.6-3.3-9-4.8-12.6zM299.9 33.5c-4.6-5.6-13.7-15.4-22.1-23.8-.3-.3-.6-.7-.9-1.1h-.1v7.9c0 5.7.3 12.9.8 16.6-.5 0-1.3-.1-1.7-.1-.5 0-1.2 0-1.8.1.5-3.8.6-10.9.6-16.6v-2.4c0-6-.1-11.4-.2-13.7h.8c6.5 7.4 16.2 17.7 22.2 23.6.3.3.5.6.8 1h.1v-8c0-5.7-.3-12.3-.8-16.1.6 0 1.2.1 1.7.1s1.2 0 1.8-.1c-.4 3.8-.6 11-.6 16.6v3.8c0 4.8.1 9.3.2 12.2h-.8zM336.2 6.6l-.8.1c-1-2.7-3.9-4.5-8.4-4.5-7.3 0-12.9 4.3-12.9 14.7 0 10.3 5.7 14.7 13.2 14.7 4 0 7.3-1.6 9.2-3.8l.5.2c-.1.8-.2 2.5-.4 3-1.7 1.4-5.4 2.8-10.1 2.8-10.2 0-17.2-6.1-17.2-16.9C309.3 6.2 316.5.3 327 .3c4.2 0 7.9 1 10.4 2.2-.5 1.2-.9 2.5-1.2 4.1zM349 33.1c-1.2 0-3.8.1-4.9.1.2-3.8.4-10 .4-14.3v-4.7c0-4.3-.1-9.5-.4-13.3 1.1 0 3.2.1 4.7.1 3.1 0 7.9 0 11-.1v2.8c-2-.4-6.6-.7-11.1-.7-.1 2.2-.2 6.9-.2 10.7v1.5c5.5 0 8.6-.2 10.3-.5-.1.5-.1 1-.1 1.4 0 .4 0 .9.1 1.4-1.7-.3-4.8-.4-10.3-.4V19c0 4.2.1 10.3.2 12.1 4.2 0 7.9-.2 11.3-.8v2.9c-2.9 0-7-.1-11-.1z"/>
</svg>
