<svg xmlns="http://www.w3.org/2000/svg">
  <symbol viewBox="0 0 360 33.9">
    <path d="M6.6 18.8H4.4v.2c0 4.1.1 10.4.4 14.2-.7 0-1.7-.1-2.4-.1-.8 0-1.7 0-2.5.1.2-3.8.4-10 .4-14.3v-4.7C.4 10 .2 4.7 0 .9c1.6 0 3.3.1 4.4.1 1 0 2.2 0 3.3-.1C8.8.9 9.8.8 10.5.8c3.8 0 9.2 1 9.2 8.2 0 8.4-7.5 9.8-13.1 9.8zM7.7 2.6c-1 0-2.1.1-3.1.2-.1 2.9-.1 8.5-.1 11.4V17h1.8c4.8 0 8.8-1.2 8.8-7.9 0-5.1-3.4-6.5-7.4-6.5zM54 19.2c0 2.5-.4 5.1-1.1 7.1-1.7 4.6-5.6 7.7-12.3 7.7-9.2 0-13.2-3.7-13.2-13.4 0-2.9.1-6 .1-8.4 0-5.2-.1-8.5-.3-11.2.8-.1 1.8 0 2.5 0 .8 0 1.7 0 2.6-.1-.3 3-.7 9.6-.7 16.6 0 8.4 1.1 14.2 10 14.2 5.5 0 8.3-2.8 9.4-7.2.5-1.9.6-3.9.6-6.7 0-6.9-.2-13-.6-16.9.7 0 1.2.1 1.7.1s1.2 0 1.7-.1c-.2 4.3-.4 9.1-.4 18.3zM86.6 33.2h-2.3c-.8 0-2.5.1-3.2.2C79 30.2 72.6 21.8 69 17.7c-.1-.2-.4-.2-.8-.2V19c0 4.2.1 10.5.4 14.3-.6 0-1.6-.1-2.3-.1-.8 0-1.7 0-2.4.1.2-3.8.4-10 .4-14.3v-4.7c0-4.3 0-9.5-.2-13.3 1.6 0 2.7.1 3.8.1.8 0 1.7 0 2.7-.1 1 0 1.9-.1 2.6-.1 5.3 0 9.7 1.8 9.7 7.4 0 6.2-5 8.5-9.5 8.9 2.2 2.9 10.5 12.7 13.4 15.8l-.2.2zM70.8 2.6c-.7 0-1.6 0-2.4.2-.2 2.9-.2 8.5-.2 11.4V16h1.7c4.3 0 8.6-1.1 8.6-7.3-.2-5.2-4.2-6.1-7.7-6.1zM97.4 33.1c-1.2 0-3.8.1-4.9.1.2-3.8.4-10 .4-14.3v-4.7c0-4.3-.1-9.5-.4-13.3 1.1 0 3.2.1 4.7.1 3.1 0 7.9 0 11-.1v2.8c-2-.4-6.6-.7-11.1-.7-.1 2.2-.2 6.9-.2 10.7v1.5c5.5 0 8.6-.2 10.3-.5v2.8c-1.7-.3-4.8-.4-10.3-.4V19c0 4.2.1 10.3.2 12.1 4.2 0 7.9-.2 11.3-.8v2.9c-2.9 0-7-.1-11-.1zM150.9 33.2h-2.3c-.8 0-2.5.1-3.2.2-2.1-3.1-8.4-11.5-12.1-15.6-.1-.2-.4-.2-.8-.2v1.5c0 4.2.1 10.5.4 14.3-.6 0-1.6-.1-2.3-.1-.8 0-1.7 0-2.4.1.2-3.8.4-10 .4-14.3v-4.7c0-4.3 0-9.5-.2-13.3 1.6 0 2.7.1 3.8.1.8 0 1.7 0 2.7-.1 1 0 1.9-.1 2.6-.1 5.3 0 9.7 1.8 9.7 7.4 0 6.2-5 8.5-9.5 8.9 2.2 2.9 10.5 12.7 13.4 15.8l-.2.1zM135 2.6c-.7 0-1.6 0-2.4.2-.2 2.9-.2 8.5-.2 11.4V16h1.7c4.3 0 8.6-1.1 8.6-7.3-.1-5.2-4.2-6.1-7.7-6.1zM172.2 33.9c-10.1 0-17-6.6-17-16.9 0-10.3 6.9-16.9 17-16.9 10.4 0 17.1 6.5 17.1 16.9 0 10.2-6.9 16.9-17.1 16.9zm0-32c-7.1 0-12.2 5-12.2 15.1 0 9.9 5.1 15 12.2 15 7.2 0 12.3-5.1 12.3-15 0-9.8-5.1-15.1-12.3-15.1zM231.3 33.1c-.8 0-1.6 0-2.5.1-.2-5.9-1.1-16.3-2-23.8h-.2c-2.5 4.1-9.2 16.5-12.5 23.7h-.8c-2.8-6.8-8.7-17.4-11.5-22.3-.2-.4-.4-.9-.6-1.3h-.2c-1 8.1-2 18.4-2 23.7-.5 0-1.2-.1-1.7-.1s-1.2 0-1.8.1c1.8-10.2 3.7-23.2 4.6-33h.8c4.3 8.1 11.4 21.4 14 26h.2c2.5-4.4 9.6-17.1 14.2-26h.8c1 13 2.6 28 3.6 33-.6 0-1.6-.1-2.4-.1zM268 33.2c-.8 0-2.1-.1-2.8-.1-.7 0-1.6 0-2.4.1-.9-3.2-2.7-8.1-4.4-12.5-1.7-.1-4.2-.1-6.3-.1-1.9 0-3.7 0-5.7.1-2 4.8-3.8 9.6-4.7 12.5-.5 0-1.2-.1-1.7-.1-.6 0-1.4 0-1.8.1l-.1-.1C243.4 22.4 248.9 11 253.8 0h.8c4.2 11 11.2 28.1 13.6 33.1l-.2.1zM252.8 6.1c-1.4 3-4.2 9.1-5.6 12.6H257.6c-.9-2.6-3.3-9-4.8-12.6zM299.9 33.5c-4.6-5.6-13.7-15.4-22.1-23.8-.3-.3-.6-.7-.9-1.1h-.1v7.9c0 5.7.3 12.9.8 16.6-.5 0-1.3-.1-1.7-.1-.5 0-1.2 0-1.8.1.5-3.8.6-10.9.6-16.6v-2.4c0-6-.1-11.4-.2-13.7h.8c6.5 7.4 16.2 17.7 22.2 23.6.3.3.5.6.8 1h.1v-8c0-5.7-.3-12.3-.8-16.1.6 0 1.2.1 1.7.1s1.2 0 1.8-.1c-.4 3.8-.6 11-.6 16.6v3.8c0 4.8.1 9.3.2 12.2h-.8zM336.2 6.6l-.8.1c-1-2.7-3.9-4.5-8.4-4.5-7.3 0-12.9 4.3-12.9 14.7 0 10.3 5.7 14.7 13.2 14.7 4 0 7.3-1.6 9.2-3.8l.5.2c-.1.8-.2 2.5-.4 3-1.7 1.4-5.4 2.8-10.1 2.8-10.2 0-17.2-6.1-17.2-16.9C309.3 6.2 316.5.3 327 .3c4.2 0 7.9 1 10.4 2.2-.5 1.2-.9 2.5-1.2 4.1zM349 33.1c-1.2 0-3.8.1-4.9.1.2-3.8.4-10 .4-14.3v-4.7c0-4.3-.1-9.5-.4-13.3 1.1 0 3.2.1 4.7.1 3.1 0 7.9 0 11-.1v2.8c-2-.4-6.6-.7-11.1-.7-.1 2.2-.2 6.9-.2 10.7v1.5c5.5 0 8.6-.2 10.3-.5-.1.5-.1 1-.1 1.4 0 .4 0 .9.1 1.4-1.7-.3-4.8-.4-10.3-.4V19c0 4.2.1 10.3.2 12.1 4.2 0 7.9-.2 11.3-.8v2.9c-2.9 0-7-.1-11-.1z"/>
  </symbol>

  <symbol id="pure-romance-logo" viewBox="0 0 432 40.7" style="enable-background:new 0 0 432 40.7;" xml:space="preserve">
    <g>
    	<g>
    		<path class="st0" d="M7.9,22.5H5.3v0.3c0,4.9,0.2,12.5,0.4,17c-0.8-0.1-2-0.1-2.8-0.1c-0.9,0-2.1,0.1-2.9,0.1
    			c0.3-4.5,0.5-12,0.5-17.1v-5.7C0.5,12,0.3,5.6,0,1.1c1.9,0.1,4,0.1,5.3,0.1c1.2,0,2.6-0.1,4-0.1c1.3,0,2.6-0.1,3.3-0.1
    			c4.6,0,11.1,1.1,11.1,9.9C23.7,20.9,14.7,22.5,7.9,22.5z M9.2,3.1C8,3.1,6.6,3.2,5.5,3.4C5.4,6.9,5.3,13.6,5.3,17.1v3.3h2.2
    			c5.7,0,10.6-1.4,10.6-9.5C18.1,4.8,14.1,3.1,9.2,3.1z"/>
    	</g>
    	<g>
    		<path class="st0" d="M64.8,23c0,3.1-0.5,6.1-1.3,8.5c-2,5.6-6.7,9.2-14.8,9.2c-11.1,0-15.9-4.5-15.9-16c0-3.5,0.2-7.3,0.2-10.1
    			c0-6.2-0.1-10.2-0.3-13.5c0.9,0.1,2,0.1,2.9,0.1c0.9,0,2.1-0.1,3.1-0.1c-0.4,3.6-0.8,11.6-0.8,19.9c0,10.1,1.4,17,12,17
    			c6.6,0,9.9-3.3,11.3-8.6c0.6-2.3,0.7-4.6,0.7-8c0-8.3-0.2-15.6-0.7-20.3c0.8,0.1,1.5,0.1,2.1,0.1c0.6,0,1.5-0.1,2-0.1
    			C65,6.2,64.8,12,64.8,23z"/>
    	</g>
    	<g>
    		<path class="st0" d="M103.9,39.8c-1.2-0.1-2-0.1-2.8-0.1c-0.9,0-3,0.1-3.9,0.2c-2.5-3.7-10.1-13.8-14.5-18.7
    			c-0.2-0.2-0.5-0.3-1-0.3v1.8c0,5,0.2,12.6,0.5,17.1c-0.7-0.1-1.9-0.1-2.8-0.1c-0.9,0-2,0.1-2.9,0.1c0.3-4.5,0.5-12,0.5-17.1v-5.7
    			c0-5.1-0.1-11.4-0.3-16c1.9,0.1,3.3,0.1,4.6,0.1c1,0,2.1-0.1,3.2-0.1c1.2,0,2.3-0.1,3.2-0.1c6.4,0,11.7,2.1,11.7,8.9
    			c0,7.4-5.9,10.1-11.4,10.7c2.7,3.5,12.6,15.2,16.1,19L103.9,39.8z M84.9,3.1c-0.8,0-1.9,0.1-2.9,0.2c-0.2,3.5-0.3,10.2-0.3,13.7
    			v2.2h2c5.2,0,10.3-1.4,10.3-8.8C94,4.2,89.1,3.1,84.9,3.1z"/>
    	</g>
    	<g>
    		<path class="st0" d="M116.9,39.7c-1.4,0-4.6,0.1-5.9,0.2c0.3-4.5,0.5-12,0.5-17.1v-5.7c0-5.1-0.2-11.4-0.5-16
    			c1.3,0.1,3.9,0.2,5.6,0.2c3.7,0,9.5-0.1,13.2-0.2c-0.1,0.6-0.1,1.1-0.1,1.6c0,0.5,0,1.1,0.1,1.6c-2.4-0.5-7.9-0.8-13.3-0.8
    			c-0.1,2.6-0.2,8.3-0.2,12.9v1.8c6.6,0,10.3-0.3,12.4-0.6c-0.1,0.6-0.1,1.2-0.1,1.7c0,0.5,0,1.1,0.1,1.7c-2.1-0.3-5.8-0.5-12.4-0.5
    			v2.2c0,5,0.1,12.4,0.2,14.6c5,0,9.5-0.2,13.5-1c-0.1,0.9-0.1,1.4-0.1,1.8c0,0.3,0,0.8,0.1,1.7C126.6,39.8,121.7,39.7,116.9,39.7z"
    			/>
    	</g>
    	<g>
    		<path class="st0" d="M181,39.8c-1.2-0.1-2-0.1-2.8-0.1c-0.9,0-3,0.1-3.9,0.2c-2.5-3.7-10.1-13.8-14.5-18.7c-0.2-0.2-0.5-0.3-1-0.3
    			v1.8c0,5,0.2,12.6,0.5,17.1c-0.7-0.1-1.9-0.1-2.8-0.1c-0.9,0-2,0.1-2.9,0.1c0.3-4.5,0.5-12,0.5-17.1v-5.7c0-5.1-0.1-11.4-0.3-16
    			c1.9,0.1,3.3,0.1,4.6,0.1c1,0,2.1-0.1,3.2-0.1c1.2,0,2.3-0.1,3.2-0.1c6.4,0,11.7,2.1,11.7,8.9c0,7.4-6,10.1-11.4,10.7
    			c2.7,3.5,12.6,15.2,16.1,19L181,39.8z M162,3.1c-0.8,0-1.9,0.1-2.9,0.2c-0.2,3.5-0.3,10.2-0.3,13.7v2.2h2c5.2,0,10.3-1.4,10.3-8.8
    			C171.1,4.2,166.2,3.1,162,3.1z"/>
    	</g>
    	<g>
    		<path class="st0" d="M206.6,40.7c-12.1,0-20.4-7.9-20.4-20.2c0-12.4,8.2-20.2,20.4-20.2c12.5,0,20.5,7.8,20.5,20.2
    			C227.1,32.6,218.9,40.7,206.6,40.7z M206.6,2.3c-8.6,0-14.6,6-14.6,18.1c0,11.8,6.1,18,14.6,18c8.7,0,14.7-6.1,14.7-18
    			C221.4,8.6,215.3,2.3,206.6,2.3z"/>
    	</g>
    	<g>
    		<path class="st0" d="M277.6,39.7c-0.9,0-1.9,0.1-3,0.1c-0.3-7.1-1.4-19.6-2.4-28.6h-0.2c-2.9,4.9-11.1,19.8-15,28.4h-0.9
    			c-3.4-8.2-10.5-20.9-13.8-26.8c-0.3-0.5-0.5-1.1-0.7-1.5h-0.2c-1.2,9.7-2.4,22-2.4,28.4c-0.6-0.1-1.5-0.1-2.1-0.1
    			c-0.6,0-1.4,0.1-2.2,0.1c2.2-12.2,4.5-27.9,5.5-39.6h0.9C246.3,10,254.8,26,258,31.5h0.2c3-5.3,11.5-20.5,17.1-31.2h0.9
    			c1.2,15.6,3.2,33.6,4.4,39.6C279.8,39.8,278.5,39.7,277.6,39.7z"/>
    	</g>
    	<g>
    		<path class="st0" d="M321.6,39.8c-1-0.1-2.5-0.1-3.4-0.1c-0.9,0-1.9,0.1-2.8,0.1c-1.1-3.9-3.2-9.7-5.3-15c-2-0.1-5-0.1-7.5-0.1
    			c-2.3,0-4.5,0-6.8,0.1c-2.4,5.8-4.6,11.5-5.6,15c-0.6-0.1-1.4-0.1-2-0.1c-0.7,0-1.6,0.1-2.2,0.1l-0.1-0.1
    			c6.3-12.9,12.9-26.6,18.7-39.7h0.9c5.1,13.2,13.5,33.8,16.3,39.7L321.6,39.8z M303.4,7.3c-1.7,3.6-5,10.9-6.7,15.1
    			c1.6,0.1,4.1,0.1,6.1,0.1c2.1,0,4.8,0,6.4-0.1C308,19.3,305.2,11.6,303.4,7.3z"/>
    	</g>
    	<g>
    		<path class="st0" d="M359.9,40.2c-5.5-6.7-16.4-18.5-26.5-28.5c-0.4-0.4-0.7-0.8-1.1-1.4l-0.2,0.1v9.5c0,6.8,0.3,15.4,1,19.9
    			c-0.6-0.1-1.5-0.1-2.1-0.1c-0.6,0-1.5,0.1-2.2,0.1c0.6-4.5,0.7-13.1,0.7-19.9v-2.8c0-7.1-0.1-13.7-0.2-16.5h0.9
    			c7.8,8.8,19.4,21.3,26.6,28.3c0.3,0.3,0.6,0.7,1,1.2L358,30v-9.7c0-6.8-0.3-14.7-1-19.3c0.7,0.1,1.5,0.1,2.1,0.1
    			c0.6,0,1.5-0.1,2.2-0.1c-0.5,4.5-0.7,13.2-0.7,19.9v4.5c0,5.8,0.1,11.1,0.2,14.6H359.9z"/>
    	</g>
    	<g>
    		<path class="st0" d="M403.4,7.9l-0.9,0.1c-1.2-3.2-4.7-5.5-10.1-5.5c-8.8,0-15.5,5.2-15.5,17.7c0,12.4,6.9,17.6,15.9,17.6
    			c4.8,0,8.7-1.9,11.1-4.5l0.5,0.2c-0.1,1-0.3,3-0.5,3.6c-2.1,1.7-6.5,3.3-12.1,3.3c-12.2,0-20.7-7.4-20.7-20.3
    			c0-12.8,8.6-19.9,21.2-19.9c5,0,9.5,1.2,12.5,2.6C404.2,4.4,403.8,6,403.4,7.9z"/>
    	</g>
    	<g>
    		<path class="st0" d="M418.8,39.7c-1.4,0-4.6,0.1-5.9,0.2c0.3-4.5,0.5-12,0.5-17.1v-5.7c0-5.1-0.2-11.4-0.5-16
    			c1.3,0.1,3.9,0.2,5.6,0.2c3.7,0,9.5-0.1,13.2-0.2c-0.1,0.6-0.1,1.1-0.1,1.6c0,0.5,0,1.1,0.1,1.6c-2.4-0.5-7.9-0.8-13.3-0.8
    			c-0.1,2.6-0.2,8.3-0.2,12.9v1.8c6.6,0,10.3-0.3,12.4-0.6c-0.1,0.6-0.1,1.2-0.1,1.7c0,0.5,0,1.1,0.1,1.7c-2.1-0.3-5.8-0.5-12.4-0.5
    			v2.2c0,5,0.1,12.4,0.2,14.6c5,0,9.5-0.2,13.5-1c-0.1,0.9-0.1,1.4-0.1,1.8c0,0.3,0,0.8,0.1,1.7C428.5,39.8,423.6,39.7,418.8,39.7z"
    			/>
    	</g>
    </g>
  </symbol>

</svg>
